
<svg width="800" height="600" viewBox="0 0 800 600" fill="none" xmlns="http://www.w3.org/2000/svg">
  <g opacity="0.15">
    <circle cx="400" cy="300" r="200" stroke="#6366F1" stroke-width="1"/>
    <circle cx="400" cy="300" r="150" stroke="#6366F1" stroke-width="1"/>
    <circle cx="400" cy="300" r="100" stroke="#6366F1" stroke-width="1"/>
    <circle cx="400" cy="300" r="50" stroke="#6366F1" stroke-width="1"/>
    <line x1="200" y1="300" x2="600" y2="300" stroke="#6366F1" stroke-width="1"/>
    <line x1="400" y1="100" x2="400" y2="500" stroke="#6366F1" stroke-width="1"/>
    <path d="M400 100C510.457 100 600 189.543 600 300C600 410.457 510.457 500 400 500" stroke="#10B981" stroke-width="1"/>
    <path d="M250 180L550 420" stroke="#10B981" stroke-width="1"/>
    <path d="M250 420L550 180" stroke="#10B981" stroke-width="1"/>
    <circle cx="400" cy="300" r="5" fill="#EC4899"/>
    <circle cx="250" cy="180" r="3" fill="#6366F1"/>
    <circle cx="550" cy="180" r="3" fill="#6366F1"/>
    <circle cx="250" cy="420" r="3" fill="#6366F1"/>
    <circle cx="550" cy="420" r="3" fill="#6366F1"/>
    <circle cx="400" cy="100" r="3" fill="#10B981"/>
    <circle cx="400" cy="500" r="3" fill="#10B981"/>
    <circle cx="600" cy="300" r="3" fill="#10B981"/>
    <circle cx="200" cy="300" r="3" fill="#10B981"/>
  </g>
</svg>
