
<svg width="400" height="400" viewBox="0 0 400 400" fill="none" xmlns="http://www.w3.org/2000/svg">
  <g opacity="0.05">
    <path d="M50 0V400" stroke="white" stroke-width="0.5"/>
    <path d="M100 0V400" stroke="white" stroke-width="0.5"/>
    <path d="M150 0V400" stroke="white" stroke-width="0.5"/>
    <path d="M200 0V400" stroke="white" stroke-width="0.5"/>
    <path d="M250 0V400" stroke="white" stroke-width="0.5"/>
    <path d="M300 0V400" stroke="white" stroke-width="0.5"/>
    <path d="M350 0V400" stroke="white" stroke-width="0.5"/>
    <path d="M0 50H400" stroke="white" stroke-width="0.5"/>
    <path d="M0 100H400" stroke="white" stroke-width="0.5"/>
    <path d="M0 150H400" stroke="white" stroke-width="0.5"/>
    <path d="M0 200H400" stroke="white" stroke-width="0.5"/>
    <path d="M0 250H400" stroke="white" stroke-width="0.5"/>
    <path d="M0 300H400" stroke="white" stroke-width="0.5"/>
    <path d="M0 350H400" stroke="white" stroke-width="0.5"/>
    <circle cx="50" cy="50" r="4" fill="#6366F1"/>
    <circle cx="150" cy="150" r="4" fill="#6366F1"/>
    <circle cx="250" cy="250" r="4" fill="#6366F1"/>
    <circle cx="350" cy="350" r="4" fill="#6366F1"/>
    <circle cx="300" cy="100" r="4" fill="#10B981"/>
    <circle cx="200" cy="300" r="4" fill="#10B981"/>
    <circle cx="100" cy="200" r="4" fill="#EC4899"/>
  </g>
</svg>
